<svg xmlns="http://www.w3.org/2000/svg" version="1.1" xmlns:xlink="http://www.w3.org/1999/xlink" width="64" height="64"><svg width="64" height="64" viewBox="0 0 64 64" fill="none" xmlns="http://www.w3.org/2000/svg">
<path d="M52.6968 9.8125L20.1343 4.0625C19.0897 3.87868 18.0148 4.11726 17.1461 4.72579C16.2774 5.33432 15.6859 6.26296 15.5018 7.3075L8.06429 49.5575C7.97332 50.0751 7.98524 50.6055 8.09936 51.1185C8.21348 51.6315 8.42757 52.117 8.72939 52.5472C9.03121 52.9774 9.41485 53.3439 9.85837 53.6258C10.3019 53.9077 10.7966 54.0994 11.3143 54.19L43.8768 59.94C44.3946 60.0313 44.9253 60.0197 45.4385 59.9057C45.9518 59.7918 46.4376 59.5778 46.8681 59.2759C47.2986 58.9741 47.6653 58.5903 47.9474 58.1466C48.2294 57.7029 48.4212 57.2079 48.5118 56.69L55.9493 14.44C56.1315 13.3951 55.8912 12.3205 55.2813 11.4527C54.6713 10.585 53.7417 9.99495 52.6968 9.8125ZM44.5668 56L12.0018 50.25L19.4393 8L52.0018 13.75L44.5668 56ZM22.3368 14.605C22.4294 14.0829 22.7256 13.619 23.1602 13.3152C23.5947 13.0115 24.1322 12.8927 24.6543 12.985L45.4043 16.6475C45.8974 16.7339 46.3402 17.0021 46.6452 17.3991C46.9502 17.7962 47.0952 18.2931 47.0516 18.7919C47.0079 19.2906 46.7788 19.7549 46.4095 20.0929C46.0401 20.4309 45.5574 20.6181 45.0568 20.6175C44.9395 20.6173 44.8224 20.6073 44.7068 20.5875L23.9568 16.9225C23.4347 16.8299 22.9708 16.5337 22.667 16.0991C22.3632 15.6645 22.2445 15.1271 22.3368 14.605ZM20.9518 22.485C20.9974 22.2263 21.0935 21.9791 21.2346 21.7575C21.3758 21.5359 21.5592 21.3443 21.7744 21.1936C21.9896 21.043 22.2324 20.9362 22.4889 20.8794C22.7454 20.8225 23.0106 20.8168 23.2693 20.8625L44.0193 24.5275C44.5159 24.6106 44.9629 24.8779 45.2711 25.2761C45.5792 25.6743 45.7258 26.1741 45.6817 26.6756C45.6375 27.1772 45.4057 27.6436 45.0327 27.9818C44.6596 28.32 44.1728 28.5051 43.6693 28.5C43.551 28.5002 43.433 28.4894 43.3168 28.4675L22.5668 24.805C22.0451 24.7112 21.582 24.4142 21.2792 23.9792C20.9764 23.5442 20.8586 23.0068 20.9518 22.485ZM19.5643 30.3625C19.6587 29.8418 19.9556 29.3797 20.3899 29.0775C20.8243 28.7753 21.3608 28.6575 21.8818 28.75L32.2518 30.5725C32.7447 30.6589 33.1874 30.9269 33.4924 31.3236C33.7973 31.7204 33.9425 32.2171 33.8992 32.7157C33.8558 33.2142 33.6272 33.6784 33.2583 34.0166C32.8895 34.3548 32.4072 34.5425 31.9068 34.5425C31.7895 34.5424 31.6724 34.5324 31.5568 34.5125L21.1818 32.68C20.6602 32.5868 20.1969 32.2904 19.8936 31.8559C19.5903 31.4214 19.4719 30.8843 19.5643 30.3625Z" fill="#C86442"></path>
</svg><style>@media (prefers-color-scheme: light) { :root { filter: none; } }
@media (prefers-color-scheme: dark) { :root { filter: none; } }
</style></svg>