<svg xmlns="http://www.w3.org/2000/svg" version="1.1" xmlns:xlink="http://www.w3.org/1999/xlink" width="64" height="64"><svg width="64" height="64" viewBox="0 0 64 64" fill="none" xmlns="http://www.w3.org/2000/svg">
<g clip-path="url(#clip0_2663_191)">
<path d="M26.2225 3.86914C25.3085 3.86914 24.3945 4.37898 23.9725 5.39648L21.6972 10.8789C19.7322 15.6139 16.0687 19.3935 11.4647 21.4375L5.4745 24.0977C3.5085 24.9697 3.5085 27.8282 5.4745 28.7012L11.6581 31.4473C16.1461 33.4393 19.745 37.0831 21.744 41.6621L23.9901 46.8086C24.5301 48.0448 25.8021 48.5083 26.8905 48.1992C27.5436 48.0138 28.131 47.5503 28.455 46.8086L30.7011 41.6621C32.7001 37.0831 36.298 33.4393 40.787 31.4473L46.9706 28.7012C47.4621 28.4832 47.8303 28.1427 48.0761 27.7383C48.1989 27.5361 48.292 27.3173 48.3534 27.0918C48.4148 26.8663 48.4452 26.6337 48.4452 26.4004C48.4452 26.1671 48.4148 25.9326 48.3534 25.707C48.1691 25.0304 47.7078 24.425 46.9706 24.0977L40.9804 21.4375C36.3764 19.3935 32.7129 15.6139 30.7479 10.8789L28.4725 5.39648C28.0505 4.37898 27.1365 3.86914 26.2225 3.86914ZM49.7499 39.6406C49.2599 39.6406 48.7708 39.9135 48.5448 40.459L47.8944 42.0234C46.7874 44.6934 44.7228 46.8255 42.1268 47.9785L40.289 48.7949C39.237 49.2619 39.237 50.7918 40.289 51.2598L42.2343 52.125C44.7653 53.25 46.7958 55.3047 47.9218 57.8867L48.5526 59.3359C48.842 59.9984 49.5237 60.2457 50.1073 60.0801C50.4575 59.9807 50.772 59.7334 50.9452 59.3359L51.578 57.8867C52.704 55.3047 54.7326 53.25 57.2636 52.125L59.2108 51.2598C59.4741 51.143 59.671 50.9606 59.8026 50.7441C59.8684 50.6359 59.9182 50.5191 59.9511 50.3984C60.0169 50.1571 60.0169 49.8996 59.9511 49.6582C59.8852 49.4168 59.752 49.1907 59.5546 49.0156C59.4559 48.9281 59.3425 48.8534 59.2108 48.7949L57.3729 47.9785C56.3994 47.5458 55.5007 46.9756 54.6991 46.291C54.4319 46.0628 54.1744 45.823 53.9296 45.5703C53.1952 44.8122 52.5668 43.946 52.0643 42.998C51.8969 42.6821 51.7437 42.3571 51.6054 42.0234L50.955 40.459C50.729 39.9135 50.2399 39.6406 49.7499 39.6406Z" fill="#C96442"></path>
</g>
<defs>
<clipPath id="SvgjsClipPath1040">
<rect width="64" height="64" fill="white"></rect>
</clipPath>
</defs>
</svg><style>@media (prefers-color-scheme: light) { :root { filter: none; } }
@media (prefers-color-scheme: dark) { :root { filter: none; } }
</style></svg>